<svg width="330" height="46" viewBox="0 0 330 46" fill="none" xmlns="http://www.w3.org/2000/svg">
<g clip-path="url(#clip0_1032_7449)">
<path d="M21.2557 41.7C18.489 41.7 15.9223 41.2667 13.5557 40.4C11.2223 39.5 9.189 38.2333 7.45566 36.6C5.75566 34.9667 4.42233 33.05 3.45566 30.85C2.489 28.6167 2.00566 26.1667 2.00566 23.5C2.00566 20.8333 2.489 18.4 3.45566 16.2C4.42233 13.9667 5.75566 12.0333 7.45566 10.4C9.189 8.76667 11.2223 7.51667 13.5557 6.65C15.9223 5.75 18.489 5.3 21.2557 5.3C24.489 5.3 27.3723 5.86667 29.9057 7C32.4723 8.13333 34.6057 9.76667 36.3057 11.9L30.0057 17.6C28.8723 16.2667 27.6223 15.25 26.2557 14.55C24.9223 13.85 23.4223 13.5 21.7557 13.5C20.3223 13.5 19.0057 13.7333 17.8057 14.2C16.6057 14.6667 15.5723 15.35 14.7057 16.25C13.8723 17.1167 13.2057 18.1667 12.7057 19.4C12.239 20.6333 12.0057 22 12.0057 23.5C12.0057 25 12.239 26.3667 12.7057 27.6C13.2057 28.8333 13.8723 29.9 14.7057 30.8C15.5723 31.6667 16.6057 32.3333 17.8057 32.8C19.0057 33.2667 20.3223 33.5 21.7557 33.5C23.4223 33.5 24.9223 33.15 26.2557 32.45C27.6223 31.75 28.8723 30.7333 30.0057 29.4L36.3057 35.1C34.6057 37.2 32.4723 38.8333 29.9057 40C27.3723 41.1333 24.489 41.7 21.2557 41.7ZM57.9197 13.45C60.0197 13.45 61.9197 13.8833 63.6197 14.75C65.3197 15.5833 66.6531 16.8833 67.6197 18.65C68.6197 20.4167 69.1197 22.7 69.1197 25.5V41H59.6197V27.05C59.6197 25.1167 59.2197 23.7167 58.4197 22.85C57.6531 21.95 56.5697 21.5 55.1697 21.5C54.1697 21.5 53.2531 21.7333 52.4197 22.2C51.5864 22.6333 50.9364 23.3167 50.4697 24.25C50.0031 25.1833 49.7697 26.4 49.7697 27.9V41H40.2697V3.9H49.7697V21.6L47.5697 19.35C48.6031 17.3833 50.0197 15.9167 51.8197 14.95C53.6197 13.95 55.6531 13.45 57.9197 13.45ZM91.6342 41V35.95L90.9842 34.7V25.4C90.9842 23.9 90.5175 22.75 89.5842 21.95C88.6842 21.1167 87.2342 20.7 85.2342 20.7C83.9342 20.7 82.6175 20.9167 81.2842 21.35C79.9508 21.75 78.8175 22.3167 77.8842 23.05L74.6842 16.6C76.2175 15.6 78.0508 14.8333 80.1842 14.3C82.3508 13.7333 84.5008 13.45 86.6342 13.45C91.0342 13.45 94.4342 14.4667 96.8342 16.5C99.2675 18.5 100.484 21.65 100.484 25.95V41H91.6342ZM83.6342 41.45C81.4675 41.45 79.6342 41.0833 78.1342 40.35C76.6342 39.6167 75.4842 38.6167 74.6842 37.35C73.9175 36.0833 73.5342 34.6667 73.5342 33.1C73.5342 31.4333 73.9508 30 74.7842 28.8C75.6508 27.5667 76.9675 26.6333 78.7342 26C80.5008 25.3333 82.7842 25 85.5842 25H91.9842V29.95H86.8842C85.3508 29.95 84.2675 30.2 83.6342 30.7C83.0342 31.2 82.7342 31.8667 82.7342 32.7C82.7342 33.5333 83.0508 34.2 83.6842 34.7C84.3175 35.2 85.1842 35.45 86.2842 35.45C87.3175 35.45 88.2508 35.2 89.0842 34.7C89.9508 34.1667 90.5842 33.3667 90.9842 32.3L92.2842 35.8C91.7842 37.6667 90.8008 39.0833 89.3342 40.05C87.9008 40.9833 86.0008 41.45 83.6342 41.45ZM106.481 41V13.9H115.531V21.8L114.181 19.55C114.981 17.5167 116.281 16 118.081 15C119.881 13.9667 122.064 13.45 124.631 13.45V22C124.197 21.9333 123.814 21.9 123.481 21.9C123.181 21.8667 122.847 21.85 122.481 21.85C120.547 21.85 118.981 22.3833 117.781 23.45C116.581 24.4833 115.981 26.1833 115.981 28.55V41H106.481ZM128.551 41V13.9H138.051V41H128.551ZM133.301 10.9C131.568 10.9 130.168 10.4167 129.101 9.45C128.034 8.48333 127.501 7.28333 127.501 5.85C127.501 4.41666 128.034 3.21666 129.101 2.25C130.168 1.28333 131.568 0.799999 133.301 0.799999C135.034 0.799999 136.434 1.26667 137.501 2.2C138.568 3.1 139.101 4.26667 139.101 5.7C139.101 7.2 138.568 8.45 137.501 9.45C136.468 10.4167 135.068 10.9 133.301 10.9ZM161.275 41.45C158.841 41.45 156.808 40.95 155.175 39.95C153.575 38.95 152.375 37.4167 151.575 35.35C150.775 33.2833 150.375 30.6333 150.375 27.4C150.375 24.2333 150.791 21.6167 151.625 19.55C152.491 17.4833 153.741 15.95 155.375 14.95C157.008 13.95 158.975 13.45 161.275 13.45C163.741 13.45 165.975 14.0167 167.975 15.15C170.008 16.2833 171.608 17.9 172.775 20C173.975 22.0667 174.575 24.5333 174.575 27.4C174.575 30.3 173.975 32.8 172.775 34.9C171.608 36.9667 170.008 38.5833 167.975 39.75C165.975 40.8833 163.741 41.45 161.275 41.45ZM144.225 41V3.9H153.725V18.45L153.225 27.4L153.275 36.35V41H144.225ZM159.275 33.9C160.341 33.9 161.291 33.65 162.125 33.15C162.991 32.65 163.675 31.9167 164.175 30.95C164.708 29.95 164.975 28.7667 164.975 27.4C164.975 26.0333 164.708 24.8833 164.175 23.95C163.675 22.9833 162.991 22.25 162.125 21.75C161.291 21.25 160.341 21 159.275 21C158.208 21 157.241 21.25 156.375 21.75C155.541 22.25 154.858 22.9833 154.325 23.95C153.825 24.8833 153.575 26.0333 153.575 27.4C153.575 28.7667 153.825 29.95 154.325 30.95C154.858 31.9167 155.541 32.65 156.375 33.15C157.241 33.65 158.208 33.9 159.275 33.9ZM178.99 41V3.9H188.49V41H178.99ZM208.864 41.45C205.664 41.45 202.864 40.85 200.464 39.65C198.098 38.4167 196.248 36.75 194.914 34.65C193.614 32.5167 192.964 30.1 192.964 27.4C192.964 24.7 193.598 22.3 194.864 20.2C196.164 18.0667 197.948 16.4167 200.214 15.25C202.481 14.05 205.031 13.45 207.864 13.45C210.531 13.45 212.964 14 215.164 15.1C217.364 16.1667 219.114 17.75 220.414 19.85C221.714 21.95 222.364 24.5 222.364 27.5C222.364 27.8333 222.348 28.2167 222.314 28.65C222.281 29.0833 222.248 29.4833 222.214 29.85H200.764V24.85H217.164L213.564 26.25C213.598 25.0167 213.364 23.95 212.864 23.05C212.398 22.15 211.731 21.45 210.864 20.95C210.031 20.45 209.048 20.2 207.914 20.2C206.781 20.2 205.781 20.45 204.914 20.95C204.081 21.45 203.431 22.1667 202.964 23.1C202.498 24 202.264 25.0667 202.264 26.3V27.75C202.264 29.0833 202.531 30.2333 203.064 31.2C203.631 32.1667 204.431 32.9167 205.464 33.45C206.498 33.95 207.731 34.2 209.164 34.2C210.498 34.2 211.631 34.0167 212.564 33.65C213.531 33.25 214.481 32.65 215.414 31.85L220.414 37.05C219.114 38.4833 217.514 39.5833 215.614 40.35C213.714 41.0833 211.464 41.45 208.864 41.45Z" fill="black"/>
<path fill-rule="evenodd" clip-rule="evenodd" d="M267.704 4.59326H236.296C232.042 4.59326 228.593 8.04618 228.593 12.3056V17.0516C228.593 21.311 232.042 24.764 236.296 24.764H267.704C271.958 24.764 275.407 21.311 275.407 17.0516V12.3056C275.407 8.04618 271.958 4.59326 267.704 4.59326ZM236.296 4C231.714 4 228 7.71854 228 12.3056V17.0516C228 21.6387 231.714 25.3572 236.296 25.3572H267.704C272.286 25.3572 276 21.6387 276 17.0516V12.3056C276 7.71854 272.286 4 267.704 4H236.296Z" fill="black"/>
<path d="M239.265 19.4247V9.93262H240.357V13.4365H240.45C240.53 13.3129 240.641 13.1554 240.783 12.9638C240.928 12.7691 241.135 12.5961 241.404 12.4447C241.675 12.2902 242.042 12.2129 242.505 12.2129C243.104 12.2129 243.632 12.3628 244.089 12.6625C244.546 12.9622 244.902 13.3871 245.158 13.9371C245.414 14.4871 245.542 15.136 245.542 15.8837C245.542 16.6376 245.414 17.2912 245.158 17.8442C244.902 18.3942 244.547 18.8206 244.093 19.1235C243.64 19.4232 243.117 19.573 242.524 19.573C242.067 19.573 241.701 19.4973 241.427 19.3459C241.152 19.1914 240.941 19.0169 240.792 18.8222C240.644 18.6244 240.53 18.4607 240.45 18.3309H240.32V19.4247H239.265ZM240.339 15.8652C240.339 16.4028 240.417 16.8771 240.575 17.2881C240.732 17.6959 240.962 18.0157 241.265 18.2475C241.567 18.4761 241.937 18.5904 242.376 18.5904C242.833 18.5904 243.214 18.4699 243.519 18.2289C243.828 17.9848 244.059 17.6573 244.214 17.2464C244.371 16.8323 244.45 16.3719 244.45 15.8652C244.45 15.3646 244.373 14.9135 244.218 14.5118C244.067 14.107 243.837 13.7872 243.529 13.5524C243.223 13.3145 242.839 13.1955 242.376 13.1955C241.931 13.1955 241.558 13.3083 241.255 13.5339C240.953 13.7563 240.725 14.0684 240.57 14.4701C240.416 14.8687 240.339 15.3337 240.339 15.8652Z" fill="black"/>
<path d="M250.195 19.573C249.51 19.573 248.919 19.4216 248.422 19.1188C247.928 18.8129 247.547 18.3865 247.279 17.8396C247.013 17.2896 246.88 16.65 246.88 15.9208C246.88 15.1916 247.013 14.5489 247.279 13.9927C247.547 13.4334 247.921 12.9978 248.399 12.6857C248.88 12.3705 249.442 12.2129 250.084 12.2129C250.454 12.2129 250.82 12.2747 251.181 12.3983C251.542 12.5219 251.871 12.7228 252.167 13.0009C252.464 13.2759 252.7 13.6405 252.876 14.0947C253.052 14.5489 253.14 15.1082 253.14 15.7725V16.236H247.658V15.2905H252.029C252.029 14.8888 251.948 14.5304 251.788 14.2152C251.63 13.9 251.405 13.6513 251.112 13.469C250.822 13.2867 250.479 13.1955 250.084 13.1955C249.649 13.1955 249.272 13.3037 248.954 13.52C248.64 13.7332 248.397 14.0113 248.228 14.3542C248.058 14.6972 247.973 15.0649 247.973 15.4573V16.0876C247.973 16.6253 248.066 17.081 248.251 17.4549C248.439 17.8257 248.7 18.1084 249.033 18.3031C249.367 18.4947 249.754 18.5904 250.195 18.5904C250.482 18.5904 250.742 18.5503 250.973 18.4699C251.208 18.3865 251.41 18.2629 251.579 18.0992C251.749 17.9323 251.88 17.7253 251.973 17.4781L253.029 17.7747C252.917 18.1331 252.731 18.4483 252.468 18.7202C252.206 18.989 251.882 19.1992 251.496 19.3506C251.11 19.4989 250.677 19.573 250.195 19.573Z" fill="black"/>
<path d="M257.894 12.3056V13.2326H254.209V12.3056H257.894ZM255.283 10.6H256.376V17.3854C256.376 17.6944 256.421 17.9261 256.51 18.0806C256.603 18.232 256.72 18.334 256.862 18.3865C257.007 18.436 257.16 18.4607 257.32 18.4607C257.441 18.4607 257.539 18.4545 257.617 18.4421C257.694 18.4267 257.755 18.4143 257.802 18.4051L258.024 19.3876C257.95 19.4154 257.846 19.4433 257.714 19.4711C257.581 19.502 257.413 19.5174 257.209 19.5174C256.9 19.5174 256.598 19.451 256.302 19.3181C256.008 19.1852 255.765 18.9829 255.57 18.711C255.379 18.439 255.283 18.0961 255.283 17.682V10.6Z" fill="black"/>
<path d="M261.63 19.5916C261.18 19.5916 260.771 19.5066 260.404 19.3367C260.036 19.1636 259.745 18.9149 259.529 18.5904C259.312 18.2629 259.204 17.8674 259.204 17.4039C259.204 16.9961 259.285 16.6655 259.445 16.4121C259.606 16.1556 259.82 15.9548 260.089 15.8096C260.357 15.6643 260.654 15.5562 260.978 15.4851C261.305 15.411 261.633 15.3523 261.964 15.309C262.396 15.2534 262.746 15.2117 263.015 15.1839C263.286 15.153 263.484 15.102 263.607 15.0309C263.734 14.9598 263.797 14.8362 263.797 14.6601V14.623C263.797 14.1657 263.672 13.8104 263.422 13.557C263.175 13.3037 262.8 13.177 262.297 13.177C261.775 13.177 261.367 13.2913 261.07 13.52C260.774 13.7486 260.566 13.9927 260.445 14.2523L259.408 13.8815C259.593 13.4489 259.84 13.1121 260.149 12.8711C260.461 12.627 260.8 12.457 261.167 12.3613C261.538 12.2624 261.902 12.2129 262.26 12.2129C262.488 12.2129 262.751 12.2408 263.047 12.2964C263.346 12.3489 263.635 12.4586 263.913 12.6254C264.194 12.7923 264.427 13.0441 264.612 13.3809C264.797 13.7177 264.89 14.1688 264.89 14.7343V19.4247H263.797V18.4607H263.742C263.667 18.6152 263.544 18.7805 263.371 18.9566C263.198 19.1327 262.968 19.2826 262.681 19.4062C262.394 19.5298 262.044 19.5916 261.63 19.5916ZM261.797 18.609C262.229 18.609 262.593 18.524 262.89 18.3541C263.189 18.1841 263.414 17.9647 263.566 17.6959C263.72 17.4271 263.797 17.1444 263.797 16.8478V15.8466C263.751 15.9023 263.649 15.9532 263.492 15.9996C263.337 16.0428 263.158 16.0815 262.954 16.1155C262.754 16.1464 262.558 16.1742 262.367 16.1989C262.178 16.2205 262.025 16.2391 261.908 16.2545C261.624 16.2916 261.359 16.3518 261.112 16.4353C260.868 16.5156 260.671 16.6376 260.519 16.8014C260.371 16.9621 260.297 17.1815 260.297 17.4596C260.297 17.8396 260.437 18.127 260.718 18.3216C261.002 18.5132 261.362 18.609 261.797 18.609Z" fill="black"/>
</g>
<defs>
<clipPath id="clip0_1032_7449">
<rect width="330" height="46" fill="white"/>
</clipPath>
</defs>
</svg>
