<svg width="277" height="39" viewBox="0 0 277 39" fill="none" xmlns="http://www.w3.org/2000/svg">
<path d="M15.0086 17.5903H8.64036V32.3256H6.36826V17.5903H0V15.5853H15.0086V17.5903Z" fill="black"/>
<path d="M24.4568 32.4848C22.8354 32.4848 21.374 32.1241 20.0726 31.4027C18.7712 30.6601 17.7472 29.6417 17.0005 28.3474C16.2538 27.0532 15.8804 25.5892 15.8804 23.9555C15.8804 22.3217 16.2538 20.8578 17.0005 19.5635C17.7472 18.2693 18.7712 17.2614 20.0726 16.5401C21.374 15.8187 22.8354 15.458 24.4568 15.458C26.0782 15.458 27.5396 15.8187 28.8409 16.5401C30.1423 17.2614 31.1557 18.2693 31.8811 19.5635C32.6278 20.8578 33.0011 22.3217 33.0011 23.9555C33.0011 25.5892 32.6278 27.0532 31.8811 28.3474C31.1557 29.6417 30.1423 30.6601 28.8409 31.4027C27.5396 32.1241 26.0782 32.4848 24.4568 32.4848ZM24.4568 30.4797C25.6515 30.4797 26.7182 30.2145 27.6569 29.6841C28.6169 29.1325 29.3636 28.358 29.897 27.3608C30.4303 26.3636 30.697 25.2285 30.697 23.9555C30.697 22.6824 30.4303 21.5473 29.897 20.5501C29.3636 19.5529 28.6169 18.7891 27.6569 18.2586C26.7182 17.707 25.6515 17.4312 24.4568 17.4312C23.2621 17.4312 22.1847 17.707 21.2246 18.2586C20.2859 18.7891 19.5392 19.5529 18.9845 20.5501C18.4512 21.5473 18.1845 22.6824 18.1845 23.9555C18.1845 25.2285 18.4512 26.3636 18.9845 27.3608C19.5392 28.358 20.2859 29.1325 21.2246 29.6841C22.1847 30.2145 23.2621 30.4797 24.4568 30.4797Z" fill="black"/>
<path d="M43.9693 24.8784H40.1292V32.3256H37.8571V15.5853H40.1292V22.937H44.0013L49.9216 15.5853H52.3857L45.7614 23.7009L52.8657 32.3256H50.1776L43.9693 24.8784Z" fill="black"/>
<path d="M70.5784 24.6556H56.4978C56.6259 26.3954 57.2979 27.8064 58.5139 28.8885C59.73 29.9493 61.266 30.4797 63.1221 30.4797C64.1675 30.4797 65.1275 30.2994 66.0022 29.9387C66.8769 29.5568 67.6343 29.0051 68.2743 28.2838L69.5544 29.7478C68.8077 30.6389 67.869 31.3178 66.7383 31.7846C65.6289 32.2514 64.4022 32.4848 63.0581 32.4848C61.33 32.4848 59.794 32.1241 58.4499 31.4027C57.1272 30.6601 56.0925 29.6417 55.3458 28.3474C54.5991 27.0532 54.2257 25.5892 54.2257 23.9555C54.2257 22.3217 54.5778 20.8578 55.2818 19.5635C56.0072 18.2693 56.9885 17.2614 58.2259 16.5401C59.4846 15.8187 60.8927 15.458 62.4501 15.458C64.0075 15.458 65.4049 15.8187 66.6423 16.5401C67.8797 17.2614 68.8504 18.2693 69.5544 19.5635C70.2584 20.8365 70.6104 22.3005 70.6104 23.9555L70.5784 24.6556ZM62.4501 17.3993C60.8287 17.3993 59.4633 17.9192 58.3539 18.9588C57.2659 19.9772 56.6472 21.3139 56.4978 22.9689H68.4343C68.285 21.3139 67.6556 19.9772 66.5463 18.9588C65.4582 17.9192 64.0928 17.3993 62.4501 17.3993Z" fill="black"/>
<path d="M75.6399 15.5853H77.912V23.0007H88.5044V15.5853H90.7765V32.3256H88.5044V24.9421H77.912V32.3256H75.6399V15.5853Z" fill="black"/>
<path d="M113.363 27.4881H115.763L114.099 35.8901H108.467L109.171 32.3256H98.2266L97.5546 35.8901H91.8903L93.5864 27.4881H94.0024C95.0691 27.4669 95.9438 26.8516 96.6265 25.6422C97.3305 24.4328 97.9279 22.8309 98.4186 20.8365L99.8267 15.0761H115.859L113.363 27.4881ZM103.731 21.7913C103.347 23.4038 103.016 24.6238 102.739 25.4513C102.461 26.2787 102.056 26.9577 101.523 27.4881H107.315L108.819 19.8818H104.179L103.731 21.7913Z" fill="black"/>
<path d="M126.954 32.6121C125.119 32.6121 123.519 32.2938 122.153 31.6573C120.788 30.9996 119.732 30.0766 118.985 28.8885C118.238 27.7003 117.865 26.3212 117.865 24.7511C117.865 22.8628 118.324 21.1654 119.241 19.659C120.159 18.1526 121.428 16.9644 123.049 16.0945C124.671 15.2246 126.495 14.7896 128.522 14.7896C130.356 14.7896 131.956 15.1185 133.322 15.7762C134.687 16.4127 135.743 17.3251 136.49 18.5133C137.237 19.6802 137.61 21.0487 137.61 22.6188C137.61 24.5071 137.151 26.2151 136.234 27.7427C135.317 29.2491 134.047 30.4373 132.426 31.3072C130.826 32.1771 129.002 32.6121 126.954 32.6121ZM127.306 27.7427C128.522 27.7427 129.514 27.2972 130.282 26.406C131.05 25.5149 131.434 24.3586 131.434 22.937C131.434 21.9186 131.146 21.1124 130.57 20.5183C129.994 19.9242 129.194 19.6272 128.17 19.6272C126.954 19.6272 125.961 20.0727 125.193 20.9638C124.425 21.855 124.041 23.0219 124.041 24.4647C124.041 25.4831 124.329 26.2894 124.905 26.8834C125.481 27.4563 126.282 27.7427 127.306 27.7427Z" fill="black"/>
<path d="M153.1 14.2804C151.393 14.5562 150.017 15.0442 148.972 15.7444C147.926 16.4234 147.137 17.3993 146.604 18.6724C148.246 17.5691 150.102 17.0174 152.172 17.0174C154.412 17.0174 156.161 17.6009 157.42 18.7679C158.7 19.9348 159.34 21.5579 159.34 23.6372C159.34 25.4194 158.892 27.0001 157.996 28.3792C157.1 29.7584 155.831 30.8404 154.188 31.6255C152.567 32.3893 150.689 32.7712 148.556 32.7712C145.718 32.7712 143.531 32.0392 141.995 30.5752C140.481 29.1112 139.723 26.9153 139.723 23.9873C139.723 21.5897 140.214 19.3725 141.195 17.3357C142.177 15.2988 143.563 13.6015 145.356 12.2436C147.169 10.8645 149.281 9.96272 151.692 9.53838L160.556 8.01074L160.46 13.071L153.1 14.2804ZM149.804 21.4412C148.63 21.4412 147.66 21.8125 146.892 22.5551C146.124 23.2977 145.74 24.1888 145.74 25.2285C145.74 26.2045 146.006 26.9577 146.54 27.4881C147.094 28.0186 147.841 28.2838 148.78 28.2838C149.953 28.2838 150.902 27.9125 151.628 27.1699C152.353 26.406 152.716 25.4619 152.716 24.3374C152.716 23.4038 152.449 22.693 151.916 22.205C151.404 21.6958 150.7 21.4412 149.804 21.4412Z" fill="black"/>
<path d="M174.433 14.7896C175.713 14.7896 176.907 15.1079 178.017 15.7444C179.147 16.3597 180.054 17.2614 180.737 18.4496C181.419 19.6378 181.761 21.0275 181.761 22.6188C181.761 24.5071 181.334 26.2151 180.481 27.7427C179.649 29.2491 178.507 30.4373 177.057 31.3072C175.627 32.1771 174.059 32.6121 172.352 32.6121C169.835 32.6121 168.064 31.827 167.04 30.257L165.376 38.4998H159.296L164 15.0761H169.76L169.408 16.6992C170.795 15.4262 172.47 14.7896 174.433 14.7896ZM171.488 27.7427C172.704 27.7427 173.696 27.2972 174.464 26.406C175.233 25.5149 175.617 24.3586 175.617 22.937C175.617 21.9186 175.318 21.1124 174.721 20.5183C174.144 19.9242 173.344 19.6272 172.32 19.6272C171.104 19.6272 170.112 20.0727 169.344 20.9638C168.576 21.855 168.192 23.0219 168.192 24.4647C168.192 25.4831 168.48 26.2894 169.056 26.8834C169.654 27.4563 170.464 27.7427 171.488 27.7427Z" fill="black"/>
<path d="M204.712 15.0761L201.256 32.3256H195.496L195.848 30.7025C194.461 31.9756 192.786 32.6121 190.823 32.6121C189.543 32.6121 188.338 32.3044 187.207 31.6891C186.098 31.0526 185.202 30.1403 184.519 28.9521C183.836 27.7639 183.495 26.3636 183.495 24.7511C183.495 22.884 183.911 21.1972 184.743 19.6908C185.597 18.1632 186.738 16.9644 188.167 16.0945C189.618 15.2246 191.197 14.7896 192.904 14.7896C195.421 14.7896 197.192 15.5747 198.216 17.1447L198.632 15.0761H204.712ZM192.936 27.7427C194.152 27.7427 195.144 27.2972 195.912 26.406C196.68 25.5149 197.064 24.3586 197.064 22.937C197.064 21.9186 196.765 21.1124 196.168 20.5183C195.592 19.9242 194.792 19.6272 193.768 19.6272C192.551 19.6272 191.559 20.0727 190.791 20.9638C190.023 21.855 189.639 23.0219 189.639 24.4647C189.639 25.4831 189.927 26.2894 190.503 26.8834C191.101 27.4563 191.911 27.7427 192.936 27.7427Z" fill="black"/>
<path fill-rule="evenodd" clip-rule="evenodd" d="M265.21 1.33752H220.577C214.53 1.33752 209.629 6.21214 209.629 12.2253V18.9255C209.629 24.9386 214.53 29.8132 220.577 29.8132H265.21C271.256 29.8132 276.158 24.9386 276.158 18.9255V12.2253C276.158 6.21214 271.256 1.33752 265.21 1.33752ZM220.577 0.5C214.065 0.5 208.787 5.74959 208.787 12.2253V18.9255C208.787 25.4011 214.065 30.6507 220.577 30.6507H265.21C271.721 30.6507 277 25.4011 277 18.9255V12.2253C277 5.74959 271.721 0.5 265.21 0.5H220.577Z" fill="black"/>
<path d="M224.795 22.2753V8.875H226.347V13.8216H226.479C226.593 13.6471 226.751 13.4247 226.953 13.1542C227.159 12.8794 227.453 12.6351 227.834 12.4214C228.22 12.2033 228.742 12.0942 229.4 12.0942C230.251 12.0942 231.001 12.3058 231.65 12.7289C232.299 13.152 232.806 13.7518 233.17 14.5283C233.534 15.3047 233.716 16.2208 233.716 17.2764C233.716 18.3407 233.534 19.2633 233.17 20.0441C232.806 20.8206 232.302 21.4225 231.657 21.85C231.012 22.2731 230.269 22.4847 229.426 22.4847C228.777 22.4847 228.258 22.3778 227.867 22.1641C227.477 21.946 227.176 21.6995 226.966 21.4247C226.755 21.1455 226.593 20.9144 226.479 20.7311H226.295V22.2753H224.795ZM226.321 17.2502C226.321 18.0092 226.433 18.6788 226.657 19.2589C226.88 19.8347 227.207 20.2862 227.637 20.6134C228.067 20.9362 228.593 21.0976 229.216 21.0976C229.865 21.0976 230.407 20.9274 230.841 20.5872C231.28 20.2426 231.609 19.7802 231.828 19.2001C232.052 18.6155 232.163 17.9656 232.163 17.2502C232.163 16.5435 232.054 15.9067 231.834 15.3396C231.62 14.7682 231.293 14.3167 230.854 13.9852C230.42 13.6493 229.874 13.4814 229.216 13.4814C228.584 13.4814 228.054 13.6406 227.624 13.959C227.194 14.2731 226.869 14.7137 226.65 15.2807C226.431 15.8434 226.321 16.4999 226.321 17.2502Z" fill="black"/>
<path d="M240.328 22.4847C239.354 22.4847 238.515 22.271 237.808 21.8435C237.107 21.4116 236.565 20.8097 236.183 20.0376C235.806 19.2611 235.617 18.3582 235.617 17.3287C235.617 16.2993 235.806 15.392 236.183 14.6068C236.565 13.8172 237.096 13.2022 237.775 12.7616C238.46 12.3167 239.258 12.0942 240.17 12.0942C240.697 12.0942 241.216 12.1815 241.73 12.3559C242.243 12.5304 242.71 12.814 243.131 13.2066C243.552 13.5948 243.888 14.1095 244.138 14.7507C244.388 15.392 244.513 16.1815 244.513 17.1193V17.7737H236.723V16.4389H242.934C242.934 15.8718 242.82 15.3658 242.591 14.9209C242.368 14.4759 242.048 14.1248 241.631 13.8674C241.219 13.61 240.732 13.4814 240.17 13.4814C239.552 13.4814 239.017 13.634 238.565 13.9394C238.118 14.2404 237.773 14.633 237.532 15.1171C237.291 15.6013 237.17 16.1204 237.17 16.6744V17.5643C237.17 18.3233 237.302 18.9667 237.565 19.4945C237.832 20.0179 238.203 20.4171 238.677 20.6919C239.151 20.9623 239.701 21.0976 240.328 21.0976C240.736 21.0976 241.105 21.0409 241.434 20.9274C241.767 20.8097 242.054 20.6352 242.295 20.404C242.537 20.1684 242.723 19.8762 242.855 19.5272L244.355 19.946C244.197 20.452 243.931 20.8969 243.559 21.2808C243.186 21.6603 242.725 21.9569 242.177 22.1706C241.629 22.38 241.012 22.4847 240.328 22.4847Z" fill="black"/>
<path d="M251.269 12.2251V13.5337H246.032V12.2251H251.269ZM247.559 9.81721H249.111V19.3964C249.111 19.8326 249.175 20.1597 249.302 20.3778C249.434 20.5916 249.601 20.7355 249.802 20.8097C250.008 20.8795 250.226 20.9144 250.454 20.9144C250.625 20.9144 250.765 20.9056 250.875 20.8882C250.984 20.8664 251.072 20.8489 251.138 20.8358L251.454 22.223C251.348 22.2622 251.201 22.3015 251.013 22.3408C250.824 22.3844 250.585 22.4062 250.296 22.4062C249.857 22.4062 249.427 22.3124 249.006 22.1248C248.59 21.9373 248.243 21.6516 247.967 21.2677C247.695 20.8838 247.559 20.3996 247.559 19.8151V9.81721Z" fill="black"/>
<path d="M256.579 22.5109C255.939 22.5109 255.357 22.3909 254.835 22.151C254.313 21.9067 253.899 21.5556 253.592 21.0976C253.285 20.6352 253.131 20.0768 253.131 19.4225C253.131 18.8467 253.245 18.38 253.473 18.0223C253.702 17.6602 254.006 17.3767 254.388 17.1717C254.77 16.9667 255.191 16.814 255.651 16.7137C256.116 16.609 256.583 16.5261 257.053 16.465C257.667 16.3865 258.164 16.3276 258.546 16.2884C258.932 16.2447 259.213 16.1728 259.388 16.0724C259.568 15.9721 259.658 15.7976 259.658 15.549V15.4966C259.658 14.8511 259.48 14.3494 259.125 13.9917C258.774 13.634 258.241 13.4552 257.526 13.4552C256.785 13.4552 256.204 13.6166 255.783 13.9394C255.362 14.2622 255.066 14.6068 254.895 14.9732L253.421 14.4497C253.684 13.8391 254.035 13.3636 254.474 13.0233C254.917 12.6787 255.399 12.4388 255.921 12.3036C256.447 12.164 256.965 12.0942 257.474 12.0942C257.798 12.0942 258.171 12.1335 258.592 12.212C259.018 12.2862 259.428 12.441 259.822 12.6766C260.222 12.9121 260.553 13.2676 260.816 13.7431C261.079 14.2186 261.211 14.8554 261.211 15.6537V22.2753H259.658V20.9144H259.579C259.474 21.1325 259.298 21.3658 259.053 21.6145C258.807 21.8631 258.48 22.0747 258.072 22.2492C257.664 22.4236 257.167 22.5109 256.579 22.5109ZM256.816 21.1237C257.43 21.1237 257.947 21.0038 258.368 20.7639C258.794 20.524 259.114 20.2142 259.329 19.8347C259.548 19.4552 259.658 19.0561 259.658 18.6373V17.224C259.592 17.3026 259.447 17.3745 259.224 17.44C259.004 17.501 258.75 17.5556 258.461 17.6035C258.175 17.6472 257.897 17.6864 257.625 17.7213C257.357 17.7518 257.14 17.778 256.974 17.7998C256.57 17.8522 256.193 17.9372 255.842 18.055C255.496 18.1684 255.215 18.3407 255 18.5719C254.789 18.7987 254.684 19.1085 254.684 19.501C254.684 20.0376 254.884 20.4433 255.283 20.7181C255.686 20.9885 256.197 21.1237 256.816 21.1237Z" fill="black"/>
</svg>
